ply
format ascii 1.0
comment VCGLIB generated
element vertex 8
property float x
property float y
property float z
property uchar red
property uchar green
property uchar blue
property uchar alpha
element face 12
property list uchar int vertex_indices
property uchar red
property uchar green
property uchar blue
property uchar alpha
end_header
-120 -129.25 -599.25 255 255 255 255 
-120 129.25 -599.25 255 255 255 255 
120 129.25 -599.25 255 255 255 255 
120 -129.25 -599.25 255 255 255 255 
120 -129.25 599.25 255 255 255 255 
120 129.25 599.25 255 255 255 255 
-120 129.25 599.25 255 255 255 255 
-120 -129.25 599.25 255 255 255 255 
3 0 1 2 128 128 128 255 
3 0 2 3 128 128 128 255 
3 4 5 6 128 128 128 255 
3 4 6 7 128 128 128 255 
3 2 1 6 128 128 128 255 
3 2 6 5 128 128 128 255 
3 3 2 5 128 128 128 255 
3 3 5 4 128 128 128 255 
3 1 0 7 128 128 128 255 
3 1 7 6 128 128 128 255 
3 3 4 7 128 128 128 255 
3 3 7 0 128 128 128 255 
